<?xml version="1.0" encoding="UTF-8"?>
<svg xmlns="http://www.w3.org/2000/svg" viewBox="0 0 1200 630" width="1200" height="630" role="img" aria-label="Como Fazer Stiff: Tecnica Perfeita para Posterior de Coxa">
  <title>Como Fazer Stiff: Tecnica Perfeita para Posterior de Coxa</title>
  <desc>Infografico: Como Fazer Stiff: Tecnica Perfeita para Posterior de Coxa - Montinho Personal Trainer</desc>
  <!-- STEPS -->
  <rect width="1200" height="630" fill="#0d0d0d"/>
  <rect x="0" y="0" width="5" height="630" fill="#BA9E50"/>
  <rect x="1" y="1" width="1198" height="628" fill="none" stroke="#BA9E50" stroke-width="1" opacity="0.3"/>
  <rect x="25" y="22" width="112" height="28" rx="12" fill="#BA9E50" fill-opacity="0.15" stroke="#BA9E50" stroke-width="1" opacity="0.6"/>
  <text x="81" y="41" font-family="Arial,sans-serif" font-size="13" fill="#BA9E50" text-anchor="middle" font-weight="600">Treinamento</text>
  <text x="25" y="80" font-family="Arial,sans-serif" font-size="26" fill="#F5F5F5" font-weight="bold">Como Fazer Stiff: Tecnica Perfeita para Posterior de Coxa</text>
  <text x="25" y="290" font-family="Arial,sans-serif" font-size="14" fill="#888888" letter-spacing="3">PASSO A PASSO</text>
  <circle cx="160" cy="340" r="50" fill="#BA9E50" fill-opacity="0.12" stroke="#BA9E50" stroke-width="2"/>
  <text x="160" y="332" font-family="Arial,sans-serif" font-size="36" fill="#BA9E50" text-anchor="middle" font-weight="bold">1</text>
  <text x="160" y="403" font-family="Arial,sans-serif" font-size="14" fill="#F5F5F5" text-anchor="middle">Pegada na Barra</text>  <line x1="215" y1="340" x2="265" y2="340" stroke="#BA9E50" stroke-width="2"/>
  <polygon points="268,340 260,334 260,346" fill="#BA9E50"/>  <circle cx="370" cy="340" r="50" fill="#BA9E50" fill-opacity="0.12" stroke="#BA9E50" stroke-width="2"/>
  <text x="370" y="332" font-family="Arial,sans-serif" font-size="36" fill="#BA9E50" text-anchor="middle" font-weight="bold">2</text>
  <text x="370" y="403" font-family="Arial,sans-serif" font-size="14" fill="#F5F5F5" text-anchor="middle">Joelhos Semiflex.</text>  <line x1="425" y1="340" x2="475" y2="340" stroke="#BA9E50" stroke-width="2"/>
  <polygon points="478,340 470,334 470,346" fill="#BA9E50"/>  <circle cx="580" cy="340" r="50" fill="#BA9E50" fill-opacity="0.12" stroke="#BA9E50" stroke-width="2"/>
  <text x="580" y="332" font-family="Arial,sans-serif" font-size="36" fill="#BA9E50" text-anchor="middle" font-weight="bold">3</text>
  <text x="580" y="403" font-family="Arial,sans-serif" font-size="14" fill="#F5F5F5" text-anchor="middle">Descer Controlado</text>  <line x1="635" y1="340" x2="685" y2="340" stroke="#BA9E50" stroke-width="2"/>
  <polygon points="688,340 680,334 680,346" fill="#BA9E50"/>  <circle cx="790" cy="340" r="50" fill="#BA9E50" fill-opacity="0.12" stroke="#BA9E50" stroke-width="2"/>
  <text x="790" y="332" font-family="Arial,sans-serif" font-size="36" fill="#BA9E50" text-anchor="middle" font-weight="bold">4</text>
  <text x="790" y="403" font-family="Arial,sans-serif" font-size="14" fill="#F5F5F5" text-anchor="middle">Quadril Empurra</text>
  <rect x="900" y="200" width="250" height="240" rx="4" fill="#BA9E50" fill-opacity="0.04" stroke="#BA9E50" stroke-width="1" stroke-opacity="0.15"/>
  <text x="1025" y="320" font-family="Arial,sans-serif" font-size="13" fill="#888888" text-anchor="middle">Montinho Personal Trainer</text>
  <text x="1025" y="360" font-family="Arial,sans-serif" font-size="40" fill="#BA9E50" text-anchor="middle" fill-opacity="0.4">PT</text>
  <text x="1176" y="618" font-family="Arial,sans-serif" font-size="11" fill="#444" text-anchor="end">montinhopersonal.com.br</text>
</svg>