<?xml version="1.0" encoding="UTF-8"?>
<svg xmlns="http://www.w3.org/2000/svg" viewBox="0 0 1200 630" width="1200" height="630" role="img" aria-label="Como Aumentar a Testosterona Naturalmente: O Que Realmente Funciona">
  <title>Como Aumentar a Testosterona Naturalmente: O Que Realmente Funciona</title>
  <desc>Infografico: Como Aumentar a Testosterona Naturalmente: O Que Realmente Funciona</desc>
  <defs>
    <linearGradient id="bg" x1="0" y1="0" x2="1" y2="1">
      <stop offset="0%" stop-color="#111111"/>
      <stop offset="100%" stop-color="#0a0a0a"/>
    </linearGradient>
    <linearGradient id="gold" x1="0" y1="0" x2="1" y2="0">
      <stop offset="0%" stop-color="#C9AE60"/>
      <stop offset="100%" stop-color="#A08030"/>
    </linearGradient>
  </defs>
  <rect width="1200" height="630" fill="url(#bg)"/>
  <rect x="2" y="2" width="1196" height="626" fill="none" stroke="#BA9E50" stroke-width="1.5" opacity="0.4"/>
  <rect x="0" y="0" width="6" height="630" fill="url(#gold)"/>
  <text x="1176" y="614" font-family="Arial,sans-serif" font-size="11" fill="#555555" text-anchor="end">montinhopersonal.com.br</text>
  <rect x="60" y="30" width="92" height="24" rx="12" fill="#BA9E50" opacity="0.2"/>
  <text x="70" y="47" font-family="Arial,sans-serif" font-size="12" fill="#BA9E50" font-weight="bold">HORMONIOS</text>
  <text x="60" y="90" font-family="Arial,sans-serif" font-size="36" fill="#F5F5F5" font-weight="bold">Testosterona Natural</text>
  <text x="60" y="146" font-family="Arial,sans-serif" font-size="16" fill="#555555">Fatores que influenciam a producao</text>
  <rect x="60" y="168" width="80" height="3" rx="2" fill="url(#gold)"/>
  <rect x="60" y="200" width="520" height="50" rx="6" fill="#1a1a1a" stroke="#BA9E50" stroke-width="0.6"/>
  <circle cx="84" cy="225" r="8" fill="#BA9E50" opacity="0.8"/>
  <text x="104" y="222" font-family="Arial,sans-serif" font-size="13" fill="#F5F5F5">Sono 7-9h: reducao de ate 15% em uma semana com</text>
  <text x="104" y="238" font-family="Arial,sans-serif" font-size="13" fill="#F5F5F5">privacao</text>
  <rect x="600" y="200" width="520" height="50" rx="6" fill="#1a1a1a" stroke="#BA9E50" stroke-width="0.6"/>
  <circle cx="624" cy="225" r="8" fill="#42A5F5" opacity="0.8"/>
  <text x="644" y="222" font-family="Arial,sans-serif" font-size="13" fill="#F5F5F5">Treino de forca: pico de testosterona 15-30min</text>
  <text x="644" y="238" font-family="Arial,sans-serif" font-size="13" fill="#F5F5F5">pos-exercicio</text>
  <rect x="60" y="264" width="520" height="50" rx="6" fill="#1a1a1a" stroke="#BA9E50" stroke-width="0.6"/>
  <circle cx="84" cy="289" r="8" fill="#4CAF50" opacity="0.8"/>
  <text x="104" y="286" font-family="Arial,sans-serif" font-size="13" fill="#F5F5F5">Gorduras saudaveis: colesterol e precursor da</text>
  <text x="104" y="302" font-family="Arial,sans-serif" font-size="13" fill="#F5F5F5">testosterona</text>
  <rect x="600" y="264" width="520" height="50" rx="6" fill="#1a1a1a" stroke="#BA9E50" stroke-width="0.6"/>
  <circle cx="624" cy="289" r="8" fill="#FF7043" opacity="0.8"/>
  <text x="644" y="286" font-family="Arial,sans-serif" font-size="13" fill="#F5F5F5">Vitamina D: correlacao direta com niveis de</text>
  <text x="644" y="302" font-family="Arial,sans-serif" font-size="13" fill="#F5F5F5">testosterona</text>
  <rect x="60" y="328" width="520" height="50" rx="6" fill="#1a1a1a" stroke="#BA9E50" stroke-width="0.6"/>
  <circle cx="84" cy="353" r="8" fill="#EF5350" opacity="0.8"/>
  <text x="104" y="350" font-family="Arial,sans-serif" font-size="13" fill="#F5F5F5">Controle do cortisol: estresse cronico suprime</text>
  <text x="104" y="366" font-family="Arial,sans-serif" font-size="13" fill="#F5F5F5">testosterona</text>
  <rect x="600" y="328" width="520" height="50" rx="6" fill="#1a1a1a" stroke="#BA9E50" stroke-width="0.6"/>
  <circle cx="624" cy="353" r="8" fill="#BA9E50" opacity="0.8"/>
  <text x="644" y="350" font-family="Arial,sans-serif" font-size="13" fill="#F5F5F5">Manutencao do peso: gordura visceral converte T em</text>
  <text x="644" y="366" font-family="Arial,sans-serif" font-size="13" fill="#F5F5F5">estrogenio</text>
  <rect x="60" y="392" width="520" height="50" rx="6" fill="#1a1a1a" stroke="#BA9E50" stroke-width="0.6"/>
  <circle cx="84" cy="417" r="8" fill="#42A5F5" opacity="0.8"/>
  <text x="104" y="414" font-family="Arial,sans-serif" font-size="13" fill="#F5F5F5">Zinco: cofator essencial da sintese de</text>
  <text x="104" y="430" font-family="Arial,sans-serif" font-size="13" fill="#F5F5F5">testosterona</text>
  <rect x="600" y="392" width="520" height="50" rx="6" fill="#1a1a1a" stroke="#BA9E50" stroke-width="0.6"/>
  <circle cx="624" cy="417" r="8" fill="#4CAF50" opacity="0.8"/>
  <text x="644" y="414" font-family="Arial,sans-serif" font-size="13" fill="#F5F5F5">Evitar alcool: reduz producao de T em ate 23% na</text>
  <text x="644" y="430" font-family="Arial,sans-serif" font-size="13" fill="#F5F5F5">manha</text>
</svg>