<?xml version="1.0" encoding="UTF-8"?>
<svg xmlns="http://www.w3.org/2000/svg" viewBox="0 0 1200 630" width="1200" height="630" role="img" aria-label="Creatina Para Hipertrofia: O Que a Ciencia Realmente Diz">
  <title>Creatina Para Hipertrofia: O Que a Ciencia Realmente Diz</title>
  <desc>Infografico: Creatina Para Hipertrofia: O Que a Ciencia Realmente Diz</desc>
  <defs>
    <linearGradient id="bg" x1="0" y1="0" x2="1" y2="1">
      <stop offset="0%" stop-color="#111111"/>
      <stop offset="100%" stop-color="#0a0a0a"/>
    </linearGradient>
    <linearGradient id="gold" x1="0" y1="0" x2="1" y2="0">
      <stop offset="0%" stop-color="#C9AE60"/>
      <stop offset="100%" stop-color="#A08030"/>
    </linearGradient>
  </defs>
  <rect width="1200" height="630" fill="url(#bg)"/>
  <rect x="2" y="2" width="1196" height="626" fill="none" stroke="#BA9E50" stroke-width="1.5" opacity="0.4"/>
  <rect x="0" y="0" width="6" height="630" fill="url(#gold)"/>
  <text x="1176" y="614" font-family="Arial,sans-serif" font-size="11" fill="#555555" text-anchor="end">montinhopersonal.com.br</text>
  <rect x="60" y="30" width="100" height="24" rx="12" fill="#BA9E50" opacity="0.2"/>
  <text x="70" y="47" font-family="Arial,sans-serif" font-size="12" fill="#BA9E50" font-weight="bold">SUPLEMENTO</text>
  <text x="60" y="90" font-family="Arial,sans-serif" font-size="36" fill="#F5F5F5" font-weight="bold">Creatina Monohidratada</text>
  <text x="60" y="146" font-family="Arial,sans-serif" font-size="16" fill="#555555">O suplemento mais estudado da historia</text>
  <rect x="60" y="168" width="80" height="3" rx="2" fill="url(#gold)"/>
  <rect x="60" y="195" width="270" height="52" fill="url(#gold)"/>
  <text x="195" y="227" font-family="Arial,sans-serif" font-size="14" fill="#F5F5F5" text-anchor="middle" font-weight="bold">Beneficio</text>
  <rect x="330" y="195" width="270" height="52" fill="#2a2a2a"/>
  <text x="465" y="227" font-family="Arial,sans-serif" font-size="14" fill="#F5F5F5" text-anchor="middle" font-weight="bold">Magnitude</text>
  <rect x="600" y="195" width="270" height="52" fill="#2a2a2a"/>
  <text x="735" y="227" font-family="Arial,sans-serif" font-size="14" fill="#F5F5F5" text-anchor="middle" font-weight="bold">Evidencia</text>
  <rect x="870" y="195" width="270" height="52" fill="#2a2a2a"/>
  <text x="1005" y="227" font-family="Arial,sans-serif" font-size="14" fill="#F5F5F5" text-anchor="middle" font-weight="bold">Referencia</text>
  <rect x="60" y="247" width="270" height="52" fill="#1a1a1a" stroke="#555555" stroke-width="0.3"/>
  <text x="72" y="278" font-family="Arial,sans-serif" font-size="12" fill="#BA9E50">Forca maxima</text>
  <rect x="330" y="247" width="270" height="52" fill="#1a1a1a" stroke="#555555" stroke-width="0.3"/>
  <text x="342" y="278" font-family="Arial,sans-serif" font-size="12" fill="#555555">+8 a 14%</text>
  <rect x="600" y="247" width="270" height="52" fill="#1a1a1a" stroke="#555555" stroke-width="0.3"/>
  <text x="612" y="278" font-family="Arial,sans-serif" font-size="12" fill="#555555">Alta</text>
  <rect x="870" y="247" width="270" height="52" fill="#1a1a1a" stroke="#555555" stroke-width="0.3"/>
  <text x="882" y="278" font-family="Arial,sans-serif" font-size="12" fill="#555555">JISSN 2017</text>
  <rect x="60" y="299" width="270" height="52" fill="#2a2a2a" stroke="#555555" stroke-width="0.3"/>
  <text x="72" y="330" font-family="Arial,sans-serif" font-size="12" fill="#BA9E50">Volume muscular</text>
  <rect x="330" y="299" width="270" height="52" fill="#2a2a2a" stroke="#555555" stroke-width="0.3"/>
  <text x="342" y="330" font-family="Arial,sans-serif" font-size="12" fill="#555555">+1-2 kg</text>
  <rect x="600" y="299" width="270" height="52" fill="#2a2a2a" stroke="#555555" stroke-width="0.3"/>
  <text x="612" y="330" font-family="Arial,sans-serif" font-size="12" fill="#555555">Alta</text>
  <rect x="870" y="299" width="270" height="52" fill="#2a2a2a" stroke="#555555" stroke-width="0.3"/>
  <text x="882" y="330" font-family="Arial,sans-serif" font-size="12" fill="#555555">Cribb et al. 2007</text>
  <rect x="60" y="351" width="270" height="52" fill="#1a1a1a" stroke="#555555" stroke-width="0.3"/>
  <text x="72" y="382" font-family="Arial,sans-serif" font-size="12" fill="#BA9E50">Resistencia</text>
  <rect x="330" y="351" width="270" height="52" fill="#1a1a1a" stroke="#555555" stroke-width="0.3"/>
  <text x="342" y="382" font-family="Arial,sans-serif" font-size="12" fill="#555555">+15%</text>
  <rect x="600" y="351" width="270" height="52" fill="#1a1a1a" stroke="#555555" stroke-width="0.3"/>
  <text x="612" y="382" font-family="Arial,sans-serif" font-size="12" fill="#555555">Moderada</text>
  <rect x="870" y="351" width="270" height="52" fill="#1a1a1a" stroke="#555555" stroke-width="0.3"/>
  <text x="882" y="382" font-family="Arial,sans-serif" font-size="12" fill="#555555">Rawson 2003</text>
  <rect x="60" y="403" width="270" height="52" fill="#2a2a2a" stroke="#555555" stroke-width="0.3"/>
  <text x="72" y="434" font-family="Arial,sans-serif" font-size="12" fill="#BA9E50">Recuperacao</text>
  <rect x="330" y="403" width="270" height="52" fill="#2a2a2a" stroke="#555555" stroke-width="0.3"/>
  <text x="342" y="434" font-family="Arial,sans-serif" font-size="12" fill="#555555">Reduz DOMS</text>
  <rect x="600" y="403" width="270" height="52" fill="#2a2a2a" stroke="#555555" stroke-width="0.3"/>
  <text x="612" y="434" font-family="Arial,sans-serif" font-size="12" fill="#555555">Moderada</text>
  <rect x="870" y="403" width="270" height="52" fill="#2a2a2a" stroke="#555555" stroke-width="0.3"/>
  <text x="882" y="434" font-family="Arial,sans-serif" font-size="12" fill="#555555">Cooke 2009</text>
  <rect x="60" y="455" width="270" height="52" fill="#1a1a1a" stroke="#555555" stroke-width="0.3"/>
  <text x="72" y="486" font-family="Arial,sans-serif" font-size="12" fill="#BA9E50">Cognicao</text>
  <rect x="330" y="455" width="270" height="52" fill="#1a1a1a" stroke="#555555" stroke-width="0.3"/>
  <text x="342" y="486" font-family="Arial,sans-serif" font-size="12" fill="#555555">Melhora memoria</text>
  <rect x="600" y="455" width="270" height="52" fill="#1a1a1a" stroke="#555555" stroke-width="0.3"/>
  <text x="612" y="486" font-family="Arial,sans-serif" font-size="12" fill="#555555">Moderada</text>
  <rect x="870" y="455" width="270" height="52" fill="#1a1a1a" stroke="#555555" stroke-width="0.3"/>
  <text x="882" y="486" font-family="Arial,sans-serif" font-size="12" fill="#555555">Rae et al. 2003</text>
</svg>