<svg xmlns="http://www.w3.org/2000/svg" viewBox="0 0 1200 630" width="1200" height="630" role="img" aria-label="Eletrólitos no Treino: Sódio, Potássio e Magnésio Para Performance e Hidratação">
  <title>Eletrólitos no Treino: Sódio, Potássio e Magnésio Para Performance e Hidratação</title>
  <desc>Infográfico: Eletrólitos no Treino: Sódio, Potássio e Magnésio Para Performance e Hidratação</desc>
  <defs>
    <linearGradient id="bg" x1="0" y1="0" x2="1" y2="1">
      <stop offset="0%" stop-color="#111111"/>
      <stop offset="100%" stop-color="#0a0a0a"/>
    </linearGradient>
    <linearGradient id="gold" x1="0" y1="0" x2="1" y2="0">
      <stop offset="0%" stop-color="#C9AE60"/>
      <stop offset="100%" stop-color="#A08030"/>
    </linearGradient>
  </defs>
  <!-- background -->
  <rect width="1200" height="630" fill="url(#bg)"/>
  <!-- border -->
  <rect x="2" y="2" width="1196" height="626" fill="none" stroke="#BA9E50" stroke-width="1.5" opacity="0.4"/>
  <!-- accent line -->
  <rect x="0" y="0" width="6" height="630" fill="url(#gold)"/>
  <!-- branding -->
  <text x="1176" y="614" font-family="Arial,sans-serif" font-size="11" fill="#555555" text-anchor="end">montinhopersonal.com.br</text>
  <rect x="60" y="30" width="100" height="24" rx="12" fill="#BA9E50" opacity="0.2"/>
  <text x="70" y="47" font-family="Arial,sans-serif" font-size="12" fill="#BA9E50" font-weight="bold">HIDRATAÇÃO</text>
  <text x="60" y="90" font-family="Arial,sans-serif" font-size="36" fill="#F5F5F5" font-weight="bold">Eletrólitos no Treino</text>
  <text x="60" y="146" font-family="Arial,sans-serif" font-size="16" fill="#555555">Sódio, potássio e magnésio: funções e doses</text>
  <rect x="60" y="168" width="80" height="3" rx="2" fill="url(#gold)"/>
  <rect x="60" y="195" width="270" height="52" fill="url(#gold)"/>
  <text x="195" y="227" font-family="Arial,sans-serif" font-size="14" fill="#F5F5F5" text-anchor="middle" font-weight="bold">Eletrólito</text>
  <rect x="330" y="195" width="270" height="52" fill="#2a2a2a"/>
  <text x="465" y="227" font-family="Arial,sans-serif" font-size="14" fill="#F5F5F5" text-anchor="middle" font-weight="bold">Perda no Suor</text>
  <rect x="600" y="195" width="270" height="52" fill="#2a2a2a"/>
  <text x="735" y="227" font-family="Arial,sans-serif" font-size="14" fill="#F5F5F5" text-anchor="middle" font-weight="bold">Função</text>
  <rect x="870" y="195" width="270" height="52" fill="#2a2a2a"/>
  <text x="1005" y="227" font-family="Arial,sans-serif" font-size="14" fill="#F5F5F5" text-anchor="middle" font-weight="bold">Fonte</text>
  <rect x="60" y="247" width="270" height="52" fill="#1a1a1a" stroke="#555555" stroke-width="0.3"/>
  <text x="72" y="278" font-family="Arial,sans-serif" font-size="12" fill="#BA9E50">Sódio</text>
  <rect x="330" y="247" width="270" height="52" fill="#1a1a1a" stroke="#555555" stroke-width="0.3"/>
  <text x="342" y="278" font-family="Arial,sans-serif" font-size="12" fill="#555555">500–700 mg/h de suor</text>
  <rect x="600" y="247" width="270" height="52" fill="#1a1a1a" stroke="#555555" stroke-width="0.3"/>
  <text x="612" y="278" font-family="Arial,sans-serif" font-size="12" fill="#555555">Contração muscular, fluidos</text>
  <rect x="870" y="247" width="270" height="52" fill="#1a1a1a" stroke="#555555" stroke-width="0.3"/>
  <text x="882" y="278" font-family="Arial,sans-serif" font-size="12" fill="#555555">Sal, isotônicos</text>
  <rect x="60" y="299" width="270" height="52" fill="#2a2a2a" stroke="#555555" stroke-width="0.3"/>
  <text x="72" y="330" font-family="Arial,sans-serif" font-size="12" fill="#BA9E50">Potássio</text>
  <rect x="330" y="299" width="270" height="52" fill="#2a2a2a" stroke="#555555" stroke-width="0.3"/>
  <text x="342" y="330" font-family="Arial,sans-serif" font-size="12" fill="#555555">200–400 mg/h de suor</text>
  <rect x="600" y="299" width="270" height="52" fill="#2a2a2a" stroke="#555555" stroke-width="0.3"/>
  <text x="612" y="330" font-family="Arial,sans-serif" font-size="12" fill="#555555">Impulso nervoso, coração</text>
  <rect x="870" y="299" width="270" height="52" fill="#2a2a2a" stroke="#555555" stroke-width="0.3"/>
  <text x="882" y="330" font-family="Arial,sans-serif" font-size="12" fill="#555555">Banana, batata-doce</text>
  <rect x="60" y="351" width="270" height="52" fill="#1a1a1a" stroke="#555555" stroke-width="0.3"/>
  <text x="72" y="382" font-family="Arial,sans-serif" font-size="12" fill="#BA9E50">Magnésio</text>
  <rect x="330" y="351" width="270" height="52" fill="#1a1a1a" stroke="#555555" stroke-width="0.3"/>
  <text x="342" y="382" font-family="Arial,sans-serif" font-size="12" fill="#555555">10–15 mg/h de suor</text>
  <rect x="600" y="351" width="270" height="52" fill="#1a1a1a" stroke="#555555" stroke-width="0.3"/>
  <text x="612" y="382" font-family="Arial,sans-serif" font-size="12" fill="#555555">Síntese proteica, sono</text>
  <rect x="870" y="351" width="270" height="52" fill="#1a1a1a" stroke="#555555" stroke-width="0.3"/>
  <text x="882" y="382" font-family="Arial,sans-serif" font-size="12" fill="#555555">Sementes, folhas verdes</text>
  <rect x="60" y="403" width="270" height="52" fill="#2a2a2a" stroke="#555555" stroke-width="0.3"/>
  <text x="72" y="434" font-family="Arial,sans-serif" font-size="12" fill="#BA9E50">Cálcio</text>
  <rect x="330" y="403" width="270" height="52" fill="#2a2a2a" stroke="#555555" stroke-width="0.3"/>
  <text x="342" y="434" font-family="Arial,sans-serif" font-size="12" fill="#555555">Baixa perda no suor</text>
  <rect x="600" y="403" width="270" height="52" fill="#2a2a2a" stroke="#555555" stroke-width="0.3"/>
  <text x="612" y="434" font-family="Arial,sans-serif" font-size="12" fill="#555555">Contração, ossos</text>
  <rect x="870" y="403" width="270" height="52" fill="#2a2a2a" stroke="#555555" stroke-width="0.3"/>
  <text x="882" y="434" font-family="Arial,sans-serif" font-size="12" fill="#555555">Leite, iogurte, brócolis</text>
  <rect x="60" y="455" width="270" height="52" fill="#1a1a1a" stroke="#555555" stroke-width="0.3"/>
  <text x="72" y="486" font-family="Arial,sans-serif" font-size="12" fill="#BA9E50">Cloreto</text>
  <rect x="330" y="455" width="270" height="52" fill="#1a1a1a" stroke="#555555" stroke-width="0.3"/>
  <text x="342" y="486" font-family="Arial,sans-serif" font-size="12" fill="#555555">Com sódio</text>
  <rect x="600" y="455" width="270" height="52" fill="#1a1a1a" stroke="#555555" stroke-width="0.3"/>
  <text x="612" y="486" font-family="Arial,sans-serif" font-size="12" fill="#555555">Equilíbrio ácido-base</text>
  <rect x="870" y="455" width="270" height="52" fill="#1a1a1a" stroke="#555555" stroke-width="0.3"/>
  <text x="882" y="486" font-family="Arial,sans-serif" font-size="12" fill="#555555">Sal de cozinha</text>
</svg>