<?xml version="1.0" encoding="UTF-8"?>
<svg xmlns="http://www.w3.org/2000/svg" viewBox="0 0 1200 630" width="1200" height="630" role="img" aria-label="7 Erros Comuns na Musculacao Que Sabotam Seus Resultados">
  <title>7 Erros Comuns na Musculacao Que Sabotam Seus Resultados</title>
  <desc>Infografico: 7 Erros Comuns na Musculacao Que Sabotam Seus Resultados - Montinho Personal Trainer</desc>
  <!-- T6: DO/DONT -->
  <!-- Background -->
  <rect width="1200" height="630" fill="#0d0d0d"/>
  <!-- Left accent bar -->
  <rect x="0" y="0" width="5" height="630" fill="#BA9E50"/>
  <!-- Border -->
  <rect x="1" y="1" width="1198" height="628" fill="none" stroke="#BA9E50" stroke-width="1" opacity="0.3"/>
  <!-- Category pill -->
  <rect x="25" y="22" width="112" height="28" rx="12" fill="#BA9E50" fill-opacity="0.15" stroke="#BA9E50" stroke-width="1" opacity="0.6"/>
  <text x="81" y="41" font-family="Arial,sans-serif" font-size="13" fill="#BA9E50" text-anchor="middle" font-weight="600">Treinamento</text>
  <text x="600" y="88" font-family="Arial,sans-serif" font-size="24" fill="#F5F5F5" text-anchor="middle" font-weight="bold">7 Erros Comuns na Musculacao Que Sabotam Seus Resulta..</text>
  <!-- Headers -->
  <rect x="40" y="130" width="500" height="45" rx="4" fill="#E53E3E" fill-opacity="0.2"/>
  <text x="290" y="160" font-family="Arial,sans-serif" font-size="20" fill="#E53E3E" text-anchor="middle" font-weight="bold">ERROS COMUNS</text>
  <rect x="620" y="130" width="540" height="45" rx="4" fill="#38A169" fill-opacity="0.2"/>
  <text x="890" y="160" font-family="Arial,sans-serif" font-size="20" fill="#38A169" text-anchor="middle" font-weight="bold">MODO CERTO</text>
  <!-- Divider -->
  <line x1="600" y1="120" x2="600" y2="600" stroke="#444" stroke-width="1"/>
  <rect x="40" y="175" width="500" height="50" rx="4" fill="#E53E3E" fill-opacity="0.08"/>
  <text x="65" y="205" font-family="Arial,sans-serif" font-size="28" fill="#E53E3E" font-weight="bold">x</text>
  <text x="100" y="205" font-family="Arial,sans-serif" font-size="16" fill="#F5F5F5">Ego lifting</text>  <rect x="40" y="255" width="500" height="50" rx="4" fill="#E53E3E" fill-opacity="0.08"/>
  <text x="65" y="285" font-family="Arial,sans-serif" font-size="28" fill="#E53E3E" font-weight="bold">x</text>
  <text x="100" y="285" font-family="Arial,sans-serif" font-size="16" fill="#F5F5F5">Sem progressao</text>  <rect x="40" y="335" width="500" height="50" rx="4" fill="#E53E3E" fill-opacity="0.08"/>
  <text x="65" y="365" font-family="Arial,sans-serif" font-size="28" fill="#E53E3E" font-weight="bold">x</text>
  <text x="100" y="365" font-family="Arial,sans-serif" font-size="16" fill="#F5F5F5">Pouco descanso</text>  <rect x="40" y="415" width="500" height="50" rx="4" fill="#E53E3E" fill-opacity="0.08"/>
  <text x="65" y="445" font-family="Arial,sans-serif" font-size="28" fill="#E53E3E" font-weight="bold">x</text>
  <text x="100" y="445" font-family="Arial,sans-serif" font-size="16" fill="#F5F5F5">Tecnica ruim</text>
  <rect x="620" y="175" width="540" height="50" rx="4" fill="#38A169" fill-opacity="0.08"/>
  <line x1="645" y1="202" x2="655" y2="212" stroke="#38A169" stroke-width="3"/>
  <line x1="655" y1="212" x2="675" y2="192" stroke="#38A169" stroke-width="3"/>
  <text x="690" y="205" font-family="Arial,sans-serif" font-size="16" fill="#F5F5F5">Peso adequado</text>  <rect x="620" y="255" width="540" height="50" rx="4" fill="#38A169" fill-opacity="0.08"/>
  <line x1="645" y1="282" x2="655" y2="292" stroke="#38A169" stroke-width="3"/>
  <line x1="655" y1="292" x2="675" y2="272" stroke="#38A169" stroke-width="3"/>
  <text x="690" y="285" font-family="Arial,sans-serif" font-size="16" fill="#F5F5F5">Sobrecarga prog.</text>  <rect x="620" y="335" width="540" height="50" rx="4" fill="#38A169" fill-opacity="0.08"/>
  <line x1="645" y1="362" x2="655" y2="372" stroke="#38A169" stroke-width="3"/>
  <line x1="655" y1="372" x2="675" y2="352" stroke="#38A169" stroke-width="3"/>
  <text x="690" y="365" font-family="Arial,sans-serif" font-size="16" fill="#F5F5F5">Recuperacao OK</text>  <rect x="620" y="415" width="540" height="50" rx="4" fill="#38A169" fill-opacity="0.08"/>
  <line x1="645" y1="442" x2="655" y2="452" stroke="#38A169" stroke-width="3"/>
  <line x1="655" y1="452" x2="675" y2="432" stroke="#38A169" stroke-width="3"/>
  <text x="690" y="445" font-family="Arial,sans-serif" font-size="16" fill="#F5F5F5">Tecnica perfeita</text>
  <!-- Watermark -->
  <text x="1176" y="618" font-family="Arial,sans-serif" font-size="11" fill="#444" text-anchor="end">montinhopersonal.com.br</text>
</svg>