<?xml version="1.0" encoding="UTF-8"?>
<svg xmlns="http://www.w3.org/2000/svg" viewBox="0 0 1200 630" width="1200" height="630" role="img" aria-label="Metabolismo lento existe?">
  <title>Metabolismo lento existe?</title>
  <desc>Infografico: Metabolismo lento existe?</desc>
  <defs>
    <linearGradient id="bg" x1="0" y1="0" x2="1" y2="1">
      <stop offset="0%" stop-color="#111111"/>
      <stop offset="100%" stop-color="#0a0a0a"/>
    </linearGradient>
    <linearGradient id="gold" x1="0" y1="0" x2="1" y2="0">
      <stop offset="0%" stop-color="#C9AE60"/>
      <stop offset="100%" stop-color="#A08030"/>
    </linearGradient>
  </defs>
  <rect width="1200" height="630" fill="url(#bg)"/>
  <rect x="2" y="2" width="1196" height="626" fill="none" stroke="#BA9E50" stroke-width="1.5" opacity="0.4"/>
  <rect x="0" y="0" width="6" height="630" fill="url(#gold)"/>
  <text x="1176" y="614" font-family="Arial,sans-serif" font-size="11" fill="#555555" text-anchor="end">montinhopersonal.com.br</text>
  <rect x="60" y="30" width="124" height="24" rx="12" fill="#BA9E50" opacity="0.2"/>
  <text x="70" y="47" font-family="Arial,sans-serif" font-size="12" fill="#BA9E50" font-weight="bold">EMAGRECIMENTO</text>
  <text x="60" y="90" font-family="Arial,sans-serif" font-size="36" fill="#F5F5F5" font-weight="bold">Metabolismo lento existe?</text>
  <text x="60" y="146" font-family="Arial,sans-serif" font-size="16" fill="#555555">Estrategia cientifica de perda de gordura</text>
  <rect x="60" y="168" width="80" height="3" rx="2" fill="url(#gold)"/>
  <rect x="60" y="200" width="520" height="50" rx="6" fill="#1a1a1a" stroke="#BA9E50" stroke-width="0.6"/>
  <circle cx="84" cy="225" r="8" fill="#BA9E50" opacity="0.8"/>
  <text x="104" y="222" font-family="Arial,sans-serif" font-size="13" fill="#F5F5F5">Deficit calorico de 300-500 kcal/dia para perda</text>
  <text x="104" y="238" font-family="Arial,sans-serif" font-size="13" fill="#F5F5F5">sustentavel</text>
  <rect x="600" y="200" width="520" height="50" rx="6" fill="#1a1a1a" stroke="#BA9E50" stroke-width="0.6"/>
  <circle cx="624" cy="225" r="8" fill="#42A5F5" opacity="0.8"/>
  <text x="644" y="222" font-family="Arial,sans-serif" font-size="13" fill="#F5F5F5">Manter proteina alta: 1.6-2.2g por kg de peso</text>
  <text x="644" y="238" font-family="Arial,sans-serif" font-size="13" fill="#F5F5F5">corporal</text>
  <rect x="60" y="264" width="520" height="50" rx="6" fill="#1a1a1a" stroke="#BA9E50" stroke-width="0.6"/>
  <circle cx="84" cy="289" r="8" fill="#4CAF50" opacity="0.8"/>
  <text x="104" y="286" font-family="Arial,sans-serif" font-size="13" fill="#F5F5F5">Combinar musculacao e cardio para maxima queima de</text>
  <text x="104" y="302" font-family="Arial,sans-serif" font-size="13" fill="#F5F5F5">gordura</text>
  <rect x="600" y="264" width="520" height="50" rx="6" fill="#1a1a1a" stroke="#BA9E50" stroke-width="0.6"/>
  <circle cx="624" cy="289" r="8" fill="#FF7043" opacity="0.8"/>
  <text x="644" y="286" font-family="Arial,sans-serif" font-size="13" fill="#F5F5F5">Sono de qualidade: 7-9h para regular grelina e</text>
  <text x="644" y="302" font-family="Arial,sans-serif" font-size="13" fill="#F5F5F5">leptina</text>
  <rect x="60" y="328" width="520" height="50" rx="6" fill="#1a1a1a" stroke="#BA9E50" stroke-width="0.6"/>
  <circle cx="84" cy="353" r="8" fill="#EF5350" opacity="0.8"/>
  <text x="104" y="350" font-family="Arial,sans-serif" font-size="13" fill="#F5F5F5">Hidratacao: 35 ml por kg de peso corporal por dia</text>
  <rect x="600" y="328" width="520" height="50" rx="6" fill="#1a1a1a" stroke="#BA9E50" stroke-width="0.6"/>
  <circle cx="624" cy="353" r="8" fill="#BA9E50" opacity="0.8"/>
  <text x="644" y="350" font-family="Arial,sans-serif" font-size="13" fill="#F5F5F5">Monitorar progresso: peso, fotos e medidas a cada</text>
  <text x="644" y="366" font-family="Arial,sans-serif" font-size="13" fill="#F5F5F5">2 semanas</text>
  <rect x="60" y="392" width="520" height="50" rx="6" fill="#1a1a1a" stroke="#BA9E50" stroke-width="0.6"/>
  <circle cx="84" cy="417" r="8" fill="#42A5F5" opacity="0.8"/>
  <text x="104" y="414" font-family="Arial,sans-serif" font-size="13" fill="#F5F5F5">Priorizar alimentos minimamente processados e alta</text>
  <text x="104" y="430" font-family="Arial,sans-serif" font-size="13" fill="#F5F5F5">saciedade</text>
  <rect x="600" y="392" width="520" height="50" rx="6" fill="#1a1a1a" stroke="#BA9E50" stroke-width="0.6"/>
  <circle cx="624" cy="417" r="8" fill="#4CAF50" opacity="0.8"/>
  <text x="644" y="414" font-family="Arial,sans-serif" font-size="13" fill="#F5F5F5">Paciencia: perda saudavel e de 0.5-1 kg por semana</text>
</svg>