<?xml version="1.0" encoding="UTF-8"?>
<svg xmlns="http://www.w3.org/2000/svg" viewBox="0 0 1200 630" width="1200" height="630" role="img" aria-label="Beneficios do Treino na Artrite">
  <title>Beneficios do Treino na Artrite</title>
  <desc>Infografico: Beneficios do Treino na Artrite - Montinho Personal Trainer</desc>
  <rect width="1200" height="630" fill="#0d0d0d"/>
  <rect x="0" y="0" width="5" height="630" fill="#BA9E50"/>
  <rect x="1" y="1" width="1198" height="628" fill="none" stroke="#BA9E50" stroke-width="1" opacity="0.3"/>
  <rect x="25" y="22" width="64" height="28" rx="12" fill="#BA9E50" fill-opacity="0.15" stroke="#BA9E50" stroke-width="1" opacity="0.6"/>
  <text x="57" y="41" font-family="Arial,sans-serif" font-size="13" fill="#BA9E50" text-anchor="middle" font-weight="600">Saude</text>
  <text x="600" y="88" font-family="Arial,sans-serif" font-size="24" fill="#F5F5F5" text-anchor="middle" font-weight="bold">Beneficios do Treino na Artrite</text>
  <rect x="40" y="110" width="360" height="215" rx="6" fill="#141414" stroke="#BA9E50" stroke-width="1" stroke-opacity="0.4"/>
  <circle cx="220" cy="197" r="30" fill="none" stroke="#BA9E50" stroke-width="2.5"/>
  <text x="220" y="252" font-family="Arial,sans-serif" font-size="15" fill="#F5F5F5" text-anchor="middle" font-weight="600">Menos dor articular</text>  <rect x="420" y="110" width="360" height="215" rx="6" fill="#141414" stroke="#BA9E50" stroke-width="1" stroke-opacity="0.4"/>
  <rect x="577.5" y="174.5" width="45.0" height="45.0" fill="none" stroke="#BA9E50" stroke-width="2.5"/>
  <text x="600" y="252" font-family="Arial,sans-serif" font-size="15" fill="#F5F5F5" text-anchor="middle" font-weight="600">Mais forca muscular</text>  <rect x="800" y="110" width="360" height="215" rx="6" fill="#141414" stroke="#BA9E50" stroke-width="1" stroke-opacity="0.4"/>
  <polygon points="980,171.5 950,222.5 1010,222.5" fill="none" stroke="#BA9E50" stroke-width="2.5"/>
  <text x="980" y="252" font-family="Arial,sans-serif" font-size="15" fill="#F5F5F5" text-anchor="middle" font-weight="600">Protege articulacoes</text>  <rect x="40" y="335" width="360" height="215" rx="6" fill="#141414" stroke="#BA9E50" stroke-width="1" stroke-opacity="0.4"/>
  <polygon points="220,380.0 250,422 220,464.0 190,422" fill="none" stroke="#BA9E50" stroke-width="2.5"/>
  <text x="220" y="477" font-family="Arial,sans-serif" font-size="15" fill="#F5F5F5" text-anchor="middle" font-weight="600">Melhora mobilidade</text>  <rect x="420" y="335" width="360" height="215" rx="6" fill="#141414" stroke="#BA9E50" stroke-width="1" stroke-opacity="0.4"/>
  <polygon points="626.0,407.0 626.0,437.0 600.0,452.0 574.0,437.0 574.0,407.0 600.0,392.0" fill="none" stroke="#BA9E50" stroke-width="2.5"/>
  <text x="600" y="477" font-family="Arial,sans-serif" font-size="15" fill="#F5F5F5" text-anchor="middle" font-weight="600">Menos fadiga</text>  <rect x="800" y="335" width="360" height="215" rx="6" fill="#141414" stroke="#BA9E50" stroke-width="1" stroke-opacity="0.4"/>
  <polygon points="980.0,392.0 987.1,412.3 1008.5,412.7 991.4,425.7 997.6,446.3 980.0,434.0 962.4,446.3 968.6,425.7 951.5,412.7 972.9,412.3" fill="#BA9E50" fill-opacity="0.3" stroke="#BA9E50" stroke-width="2"/>
  <text x="980" y="477" font-family="Arial,sans-serif" font-size="15" fill="#F5F5F5" text-anchor="middle" font-weight="600">Humor e bem-estar</text>
  <text x="1176" y="618" font-family="Arial,sans-serif" font-size="11" fill="#444" text-anchor="end">montinhopersonal.com.br</text>
</svg>