<?xml version="1.0" encoding="UTF-8"?>
<svg xmlns="http://www.w3.org/2000/svg" viewBox="0 0 1200 630" width="1200" height="630" role="img" aria-label="Nutrient Timing 2025: O Que a Ciencia Atual Diz Sobre a Janela Pos-T..">
  <title>Nutrient Timing 2025: O Que a Ciencia Atual Diz Sobre a Janela Pos-T..</title>
  <desc>Infografico: Nutrient Timing 2025: O Que a Ciencia Atual Diz Sobre a Janela Pos-T.. - Montinho Personal Trainer</desc>
  <!-- T4: PYRAMID HIERARCHY -->
  <!-- Background -->
  <rect width="1200" height="630" fill="#0d0d0d"/>
  <!-- Left accent bar -->
  <rect x="0" y="0" width="5" height="630" fill="#BA9E50"/>
  <!-- Border -->
  <rect x="1" y="1" width="1198" height="628" fill="none" stroke="#BA9E50" stroke-width="1" opacity="0.3"/>
  <!-- Category pill -->
  <rect x="25" y="22" width="88" height="28" rx="12" fill="#BA9E50" fill-opacity="0.15" stroke="#BA9E50" stroke-width="1" opacity="0.6"/>
  <text x="69" y="41" font-family="Arial,sans-serif" font-size="13" fill="#BA9E50" text-anchor="middle" font-weight="600">Nutricao</text>
  <text x="600" y="88" font-family="Arial,sans-serif" font-size="24" fill="#F5F5F5" text-anchor="middle" font-weight="bold">Nutrient Timing 2025: O Que a Ciencia Atual Diz Sobre..</text>
  <text x="600" y="118" font-family="Arial,sans-serif" font-size="14" fill="#BA9E50" text-anchor="middle">Progressao no Processo</text>
  <polygon points="460,150 740,150 740,260 460,260" fill="#BA9E50" fill-opacity="0.3" stroke="#BA9E50" stroke-width="1.5"/>
  <text x="600" y="212" font-family="Arial,sans-serif" font-size="18" fill="#F5F5F5" text-anchor="middle" font-weight="600">Avancado</text>
  <text x="980" y="212" font-family="Arial,sans-serif" font-size="13" fill="#888888">1. Avancado</text>
  <line x1="745" y1="205" x2="970" y2="205" stroke="#333" stroke-width="1" stroke-dasharray="4,4"/>  <polygon points="350,270 850,270 850,380 350,380" fill="#666" fill-opacity="0.3" stroke="#666" stroke-width="1.5"/>
  <text x="600" y="332" font-family="Arial,sans-serif" font-size="18" fill="#F5F5F5" text-anchor="middle" font-weight="600">Intermediario</text>
  <text x="980" y="332" font-family="Arial,sans-serif" font-size="13" fill="#888888">2. Intermediario</text>
  <line x1="855" y1="325" x2="970" y2="325" stroke="#333" stroke-width="1" stroke-dasharray="4,4"/>  <polygon points="240,390 960,390 960,530 240,530" fill="#333" fill-opacity="0.3" stroke="#333" stroke-width="1.5"/>
  <text x="600" y="467" font-family="Arial,sans-serif" font-size="18" fill="#F5F5F5" text-anchor="middle" font-weight="600">Fundacao</text>
  <text x="980" y="467" font-family="Arial,sans-serif" font-size="13" fill="#888888">3. Fundacao</text>
  <line x1="965" y1="460" x2="970" y2="460" stroke="#333" stroke-width="1" stroke-dasharray="4,4"/>
  <!-- Pyramid outline -->
  <polygon points="600,150 240,530 960,530" fill="none" stroke="#BA9E50" stroke-width="1.5" stroke-opacity="0.3"/>
  <!-- Watermark -->
  <text x="1176" y="618" font-family="Arial,sans-serif" font-size="11" fill="#444" text-anchor="end">montinhopersonal.com.br</text>
</svg>