<?xml version="1.0" encoding="UTF-8"?>
<svg xmlns="http://www.w3.org/2000/svg" viewBox="0 0 1200 630" width="1200" height="630" role="img" aria-label="Osteoporose e Musculacao: Como o Treino Fortalece os Ossos">
  <title>Osteoporose e Musculacao: Como o Treino Fortalece os Ossos</title>
  <desc>Infografico: Osteoporose e Musculacao: Como o Treino Fortalece os Ossos - Montinho Personal Trainer</desc>
  <!-- T10: HORIZONTAL BARS -->
  <!-- Background -->
  <rect width="1200" height="630" fill="#0d0d0d"/>
  <!-- Left accent bar -->
  <rect x="0" y="0" width="5" height="630" fill="#BA9E50"/>
  <!-- Border -->
  <rect x="1" y="1" width="1198" height="628" fill="none" stroke="#BA9E50" stroke-width="1" opacity="0.3"/>
  <!-- Category pill -->
  <rect x="25" y="22" width="64" height="28" rx="12" fill="#BA9E50" fill-opacity="0.15" stroke="#BA9E50" stroke-width="1" opacity="0.6"/>
  <text x="57" y="41" font-family="Arial,sans-serif" font-size="13" fill="#BA9E50" text-anchor="middle" font-weight="600">Saude</text>
  <text x="600" y="88" font-family="Arial,sans-serif" font-size="24" fill="#F5F5F5" text-anchor="middle" font-weight="bold">Osteoporose e Musculacao: Como o Treino Fortalece os ..</text>
  <text x="600" y="118" font-family="Arial,sans-serif" font-size="14" fill="#888888" text-anchor="middle">Impacto Relativo por Fator</text>
  <!-- Grid lines -->
  <line x1="230" y1="140" x2="1010" y2="140" stroke="#222" stroke-width="1"/>
  <line x1="230" y1="580" x2="1010" y2="580" stroke="#222" stroke-width="1"/>
  <text x="220" y="169" font-family="Arial,sans-serif" font-size="15" fill="#F5F5F5" text-anchor="end">Densidade Ossea</text>
  <rect x="230" y="150" width="780" height="30" rx="4" fill="#1a1a1a"/>
  <rect x="230" y="150" width="663" height="30" rx="4" fill="#BA9E50" fill-opacity="0.7"/>
  <text x="903" y="169" font-family="Arial,sans-serif" font-size="14" fill="#BA9E50" font-weight="bold">85%</text>  <text x="220" y="254" font-family="Arial,sans-serif" font-size="15" fill="#F5F5F5" text-anchor="end">Equilibrio</text>
  <rect x="230" y="235" width="780" height="30" rx="4" fill="#1a1a1a"/>
  <rect x="230" y="235" width="624" height="30" rx="4" fill="#3182CE" fill-opacity="0.7"/>
  <text x="864" y="254" font-family="Arial,sans-serif" font-size="14" fill="#3182CE" font-weight="bold">80%</text>  <text x="220" y="339" font-family="Arial,sans-serif" font-size="15" fill="#F5F5F5" text-anchor="end">Forca</text>
  <rect x="230" y="320" width="780" height="30" rx="4" fill="#1a1a1a"/>
  <rect x="230" y="320" width="702" height="30" rx="4" fill="#38A169" fill-opacity="0.7"/>
  <text x="942" y="339" font-family="Arial,sans-serif" font-size="14" fill="#38A169" font-weight="bold">90%</text>  <text x="220" y="424" font-family="Arial,sans-serif" font-size="15" fill="#F5F5F5" text-anchor="end">Postura</text>
  <rect x="230" y="405" width="780" height="30" rx="4" fill="#1a1a1a"/>
  <rect x="230" y="405" width="585" height="30" rx="4" fill="#DD6B20" fill-opacity="0.7"/>
  <text x="825" y="424" font-family="Arial,sans-serif" font-size="14" fill="#DD6B20" font-weight="bold">75%</text>  <text x="220" y="509" font-family="Arial,sans-serif" font-size="15" fill="#F5F5F5" text-anchor="end">Quedas</text>
  <rect x="230" y="490" width="780" height="30" rx="4" fill="#1a1a1a"/>
  <rect x="230" y="490" width="546" height="30" rx="4" fill="#E53E3E" fill-opacity="0.7"/>
  <text x="786" y="509" font-family="Arial,sans-serif" font-size="14" fill="#E53E3E" font-weight="bold">70%</text>
  <!-- Watermark -->
  <text x="1176" y="618" font-family="Arial,sans-serif" font-size="11" fill="#444" text-anchor="end">montinhopersonal.com.br</text>
</svg>