<?xml version="1.0" encoding="UTF-8"?>
<svg xmlns="http://www.w3.org/2000/svg" viewBox="0 0 1200 630" width="1200" height="630" role="img" aria-label="Perimenopausa e Treino: O Que Muda Antes da Menopausa Chegar">
  <title>Perimenopausa e Treino: O Que Muda Antes da Menopausa Chegar</title>
  <desc>Infografico: Perimenopausa e Treino: O Que Muda Antes da Menopausa Chegar</desc>
  <defs>
    <linearGradient id="bg" x1="0" y1="0" x2="1" y2="1">
      <stop offset="0%" stop-color="#111111"/>
      <stop offset="100%" stop-color="#0a0a0a"/>
    </linearGradient>
    <linearGradient id="gold" x1="0" y1="0" x2="1" y2="0">
      <stop offset="0%" stop-color="#C9AE60"/>
      <stop offset="100%" stop-color="#A08030"/>
    </linearGradient>
  </defs>
  <rect width="1200" height="630" fill="url(#bg)"/>
  <rect x="2" y="2" width="1196" height="626" fill="none" stroke="#BA9E50" stroke-width="1.5" opacity="0.4"/>
  <rect x="0" y="0" width="6" height="630" fill="url(#gold)"/>
  <text x="1176" y="614" font-family="Arial,sans-serif" font-size="11" fill="#555555" text-anchor="end">montinhopersonal.com.br</text>
  <rect x="60" y="30" width="140" height="24" rx="12" fill="#BA9E50" opacity="0.2"/>
  <text x="70" y="47" font-family="Arial,sans-serif" font-size="12" fill="#BA9E50" font-weight="bold">TREINO FEMININO</text>
  <text x="60" y="90" font-family="Arial,sans-serif" font-size="36" fill="#F5F5F5" font-weight="bold">Musculacao Feminina</text>
  <text x="60" y="146" font-family="Arial,sans-serif" font-size="16" fill="#555555">Periodizacao pelo ciclo menstrual</text>
  <rect x="60" y="168" width="80" height="3" rx="2" fill="url(#gold)"/>
  <rect x="60" y="195" width="270" height="52" fill="url(#gold)"/>
  <text x="195" y="227" font-family="Arial,sans-serif" font-size="14" fill="#F5F5F5" text-anchor="middle" font-weight="bold">Fase</text>
  <rect x="330" y="195" width="270" height="52" fill="#2a2a2a"/>
  <text x="465" y="227" font-family="Arial,sans-serif" font-size="14" fill="#F5F5F5" text-anchor="middle" font-weight="bold">Energia</text>
  <rect x="600" y="195" width="270" height="52" fill="#2a2a2a"/>
  <text x="735" y="227" font-family="Arial,sans-serif" font-size="14" fill="#F5F5F5" text-anchor="middle" font-weight="bold">Treino</text>
  <rect x="870" y="195" width="270" height="52" fill="#2a2a2a"/>
  <text x="1005" y="227" font-family="Arial,sans-serif" font-size="14" fill="#F5F5F5" text-anchor="middle" font-weight="bold">Foco</text>
  <rect x="60" y="247" width="270" height="52" fill="#1a1a1a" stroke="#555555" stroke-width="0.3"/>
  <text x="72" y="278" font-family="Arial,sans-serif" font-size="12" fill="#BA9E50">Folicular (dias 1-13)</text>
  <rect x="330" y="247" width="270" height="52" fill="#1a1a1a" stroke="#555555" stroke-width="0.3"/>
  <text x="342" y="278" font-family="Arial,sans-serif" font-size="12" fill="#555555">Alta energia, forca maxima</text>
  <rect x="600" y="247" width="270" height="52" fill="#1a1a1a" stroke="#555555" stroke-width="0.3"/>
  <text x="612" y="278" font-family="Arial,sans-serif" font-size="12" fill="#555555">Treinos pesados</text>
  <rect x="870" y="247" width="270" height="52" fill="#1a1a1a" stroke="#555555" stroke-width="0.3"/>
  <text x="882" y="278" font-family="Arial,sans-serif" font-size="12" fill="#555555">Priorizar compostos</text>
  <rect x="60" y="299" width="270" height="52" fill="#2a2a2a" stroke="#555555" stroke-width="0.3"/>
  <text x="72" y="330" font-family="Arial,sans-serif" font-size="12" fill="#BA9E50">Ovulacao (dia 14)</text>
  <rect x="330" y="299" width="270" height="52" fill="#2a2a2a" stroke="#555555" stroke-width="0.3"/>
  <text x="342" y="330" font-family="Arial,sans-serif" font-size="12" fill="#555555">Pico de estrogenio e forca</text>
  <rect x="600" y="299" width="270" height="52" fill="#2a2a2a" stroke="#555555" stroke-width="0.3"/>
  <text x="612" y="330" font-family="Arial,sans-serif" font-size="12" fill="#555555">Intensidade maxima</text>
  <rect x="870" y="299" width="270" height="52" fill="#2a2a2a" stroke="#555555" stroke-width="0.3"/>
  <text x="882" y="330" font-family="Arial,sans-serif" font-size="12" fill="#555555">Cuidado c/ lesao</text>
  <rect x="60" y="351" width="270" height="52" fill="#1a1a1a" stroke="#555555" stroke-width="0.3"/>
  <text x="72" y="382" font-family="Arial,sans-serif" font-size="12" fill="#BA9E50">Lutea inicial (15-21)</text>
  <rect x="330" y="351" width="270" height="52" fill="#1a1a1a" stroke="#555555" stroke-width="0.3"/>
  <text x="342" y="382" font-family="Arial,sans-serif" font-size="12" fill="#555555">Boa recuperacao</text>
  <rect x="600" y="351" width="270" height="52" fill="#1a1a1a" stroke="#555555" stroke-width="0.3"/>
  <text x="612" y="382" font-family="Arial,sans-serif" font-size="12" fill="#555555">Volume moderado</text>
  <rect x="870" y="351" width="270" height="52" fill="#1a1a1a" stroke="#555555" stroke-width="0.3"/>
  <text x="882" y="382" font-family="Arial,sans-serif" font-size="12" fill="#555555">Resistencia muscular</text>
  <rect x="60" y="403" width="270" height="52" fill="#2a2a2a" stroke="#555555" stroke-width="0.3"/>
  <text x="72" y="434" font-family="Arial,sans-serif" font-size="12" fill="#BA9E50">Lutea tardia (22-28)</text>
  <rect x="330" y="403" width="270" height="52" fill="#2a2a2a" stroke="#555555" stroke-width="0.3"/>
  <text x="342" y="434" font-family="Arial,sans-serif" font-size="12" fill="#555555">Fadiga, TPM</text>
  <rect x="600" y="403" width="270" height="52" fill="#2a2a2a" stroke="#555555" stroke-width="0.3"/>
  <text x="612" y="434" font-family="Arial,sans-serif" font-size="12" fill="#555555">Volume reduzido</text>
  <rect x="870" y="403" width="270" height="52" fill="#2a2a2a" stroke="#555555" stroke-width="0.3"/>
  <text x="882" y="434" font-family="Arial,sans-serif" font-size="12" fill="#555555">Mobilidade e leve</text>
</svg>