<?xml version="1.0" encoding="UTF-8"?>
<svg xmlns="http://www.w3.org/2000/svg" viewBox="0 0 1200 630" width="1200" height="630" role="img" aria-label="Refluxo e Academia: Como Treinar Sem Piorar a Azia e o GERD">
  <title>Refluxo e Academia: Como Treinar Sem Piorar a Azia e o GERD</title>
  <desc>Infografico: Refluxo e Academia: Como Treinar Sem Piorar a Azia e o GERD</desc>
  <defs>
    <linearGradient id="bg" x1="0" y1="0" x2="1" y2="1">
      <stop offset="0%" stop-color="#111111"/>
      <stop offset="100%" stop-color="#0a0a0a"/>
    </linearGradient>
    <linearGradient id="gold" x1="0" y1="0" x2="1" y2="0">
      <stop offset="0%" stop-color="#C9AE60"/>
      <stop offset="100%" stop-color="#A08030"/>
    </linearGradient>
  </defs>
  <rect width="1200" height="630" fill="url(#bg)"/>
  <rect x="2" y="2" width="1196" height="626" fill="none" stroke="#BA9E50" stroke-width="1.5" opacity="0.4"/>
  <rect x="0" y="0" width="6" height="630" fill="url(#gold)"/>
  <text x="1176" y="614" font-family="Arial,sans-serif" font-size="11" fill="#555555" text-anchor="end">montinhopersonal.com.br</text>
  <rect x="60" y="30" width="140" height="24" rx="12" fill="#BA9E50" opacity="0.2"/>
  <text x="70" y="47" font-family="Arial,sans-serif" font-size="12" fill="#BA9E50" font-weight="bold">SAUDE DIGESTIVA</text>
  <text x="60" y="90" font-family="Arial,sans-serif" font-size="36" fill="#F5F5F5" font-weight="bold">Refluxo e Academia</text>
  <text x="60" y="146" font-family="Arial,sans-serif" font-size="16" fill="#555555">Como treinar sem piorar a azia</text>
  <rect x="60" y="168" width="80" height="3" rx="2" fill="url(#gold)"/>
  <rect x="60" y="200" width="520" height="50" rx="6" fill="#1a1a1a" stroke="#BA9E50" stroke-width="0.6"/>
  <circle cx="84" cy="225" r="8" fill="#BA9E50" opacity="0.8"/>
  <text x="104" y="222" font-family="Arial,sans-serif" font-size="13" fill="#F5F5F5">Aguarde 2-3h apos refeicao completa antes de</text>
  <text x="104" y="238" font-family="Arial,sans-serif" font-size="13" fill="#F5F5F5">treinar pesado</text>
  <rect x="600" y="200" width="520" height="50" rx="6" fill="#1a1a1a" stroke="#BA9E50" stroke-width="0.6"/>
  <circle cx="624" cy="225" r="8" fill="#42A5F5" opacity="0.8"/>
  <text x="644" y="222" font-family="Arial,sans-serif" font-size="13" fill="#F5F5F5">Evite exercicios com alta pressao intra-abdominal</text>
  <text x="644" y="238" font-family="Arial,sans-serif" font-size="13" fill="#F5F5F5">logo apos comer</text>
  <rect x="60" y="264" width="520" height="50" rx="6" fill="#1a1a1a" stroke="#BA9E50" stroke-width="0.6"/>
  <circle cx="84" cy="289" r="8" fill="#4CAF50" opacity="0.8"/>
  <text x="104" y="286" font-family="Arial,sans-serif" font-size="13" fill="#F5F5F5">Prefira exercicios em posicao ereta para reduzir</text>
  <text x="104" y="302" font-family="Arial,sans-serif" font-size="13" fill="#F5F5F5">refluxo acido</text>
  <rect x="600" y="264" width="520" height="50" rx="6" fill="#1a1a1a" stroke="#BA9E50" stroke-width="0.6"/>
  <circle cx="624" cy="289" r="8" fill="#FF7043" opacity="0.8"/>
  <text x="644" y="286" font-family="Arial,sans-serif" font-size="13" fill="#F5F5F5">Bike e eliptico sao melhores que corrida para quem</text>
  <text x="644" y="302" font-family="Arial,sans-serif" font-size="13" fill="#F5F5F5">tem GERD</text>
  <rect x="60" y="328" width="520" height="50" rx="6" fill="#1a1a1a" stroke="#BA9E50" stroke-width="0.6"/>
  <circle cx="84" cy="353" r="8" fill="#EF5350" opacity="0.8"/>
  <text x="104" y="350" font-family="Arial,sans-serif" font-size="13" fill="#F5F5F5">Refeicao pre-treino: pequena, leve, sem gordura ou</text>
  <text x="104" y="366" font-family="Arial,sans-serif" font-size="13" fill="#F5F5F5">acidos</text>
  <rect x="600" y="328" width="520" height="50" rx="6" fill="#1a1a1a" stroke="#BA9E50" stroke-width="0.6"/>
  <circle cx="624" cy="353" r="8" fill="#BA9E50" opacity="0.8"/>
  <text x="644" y="350" font-family="Arial,sans-serif" font-size="13" fill="#F5F5F5">Limite cafeina do pre-treino - relaxa esfinter</text>
  <text x="644" y="366" font-family="Arial,sans-serif" font-size="13" fill="#F5F5F5">esofagico inferior</text>
  <rect x="60" y="392" width="520" height="50" rx="6" fill="#1a1a1a" stroke="#BA9E50" stroke-width="0.6"/>
  <circle cx="84" cy="417" r="8" fill="#42A5F5" opacity="0.8"/>
  <text x="104" y="414" font-family="Arial,sans-serif" font-size="13" fill="#F5F5F5">Perder peso e o tratamento mais eficaz a longo</text>
  <text x="104" y="430" font-family="Arial,sans-serif" font-size="13" fill="#F5F5F5">prazo para GERD</text>
  <rect x="600" y="392" width="520" height="50" rx="6" fill="#1a1a1a" stroke="#BA9E50" stroke-width="0.6"/>
  <circle cx="624" cy="417" r="8" fill="#4CAF50" opacity="0.8"/>
  <text x="644" y="414" font-family="Arial,sans-serif" font-size="13" fill="#F5F5F5">Para GERD grave, combine adaptacoes com IBP</text>
  <text x="644" y="430" font-family="Arial,sans-serif" font-size="13" fill="#F5F5F5">prescrito pelo medico</text>
</svg>