<?xml version="1.0" encoding="UTF-8"?>
<svg xmlns="http://www.w3.org/2000/svg" viewBox="0 0 1200 630" width="1200" height="630" role="img" aria-label="Beneficios do Exercicio na SOP">
  <title>Beneficios do Exercicio na SOP</title>
  <desc>Infografico: Beneficios do Exercicio na SOP - Montinho Personal Trainer</desc>
  <rect width="1200" height="630" fill="#0d0d0d"/>
  <rect x="0" y="0" width="5" height="630" fill="#BA9E50"/>
  <rect x="1" y="1" width="1198" height="628" fill="none" stroke="#BA9E50" stroke-width="1" opacity="0.3"/>
  <rect x="25" y="22" width="64" height="28" rx="12" fill="#BA9E50" fill-opacity="0.15" stroke="#BA9E50" stroke-width="1" opacity="0.6"/>
  <text x="57" y="41" font-family="Arial,sans-serif" font-size="13" fill="#BA9E50" text-anchor="middle" font-weight="600">Saude</text>
  <text x="600" y="88" font-family="Arial,sans-serif" font-size="24" fill="#F5F5F5" text-anchor="middle" font-weight="bold">Beneficios do Exercicio na SOP</text>
  <text x="600" y="120" font-family="Arial,sans-serif" font-size="14" fill="#888888" text-anchor="middle">Analise Baseada em Evidencias</text>
  <path d="M 90 360 A 130 130 0 0 1 350 360" fill="none" stroke="#222" stroke-width="18"/>  <path d="M 90 360 A 130 130 0 0 1 329.8 290.3" fill="none" stroke="#BA9E50" stroke-width="18" stroke-linecap="round"/>
  <text x="220" y="340" font-family="Arial,sans-serif" font-size="42" fill="#BA9E50" text-anchor="middle" font-weight="bold">82%</text>
  <text x="220" y="395" font-family="Arial,sans-serif" font-size="16" fill="#F5F5F5" text-anchor="middle" font-weight="600">Insulina regulada</text>
  <text x="90" y="380" font-family="Arial,sans-serif" font-size="11" fill="#888888" text-anchor="middle">0</text>
  <text x="350" y="380" font-family="Arial,sans-serif" font-size="11" fill="#888888" text-anchor="middle">100</text>  <path d="M 470 360 A 130 130 0 0 1 730 360" fill="none" stroke="#222" stroke-width="18"/>  <path d="M 470 360 A 130 130 0 0 1 676.4 254.8" fill="none" stroke="#3182CE" stroke-width="18" stroke-linecap="round"/>
  <text x="600" y="340" font-family="Arial,sans-serif" font-size="42" fill="#3182CE" text-anchor="middle" font-weight="bold">70%</text>
  <text x="600" y="395" font-family="Arial,sans-serif" font-size="16" fill="#F5F5F5" text-anchor="middle" font-weight="600">Androgenos</text>
  <text x="470" y="380" font-family="Arial,sans-serif" font-size="11" fill="#888888" text-anchor="middle">0</text>
  <text x="730" y="380" font-family="Arial,sans-serif" font-size="11" fill="#888888" text-anchor="middle">100</text>  <path d="M 850 360 A 130 130 0 0 1 1110 360" fill="none" stroke="#222" stroke-width="18"/>  <path d="M 850 360 A 130 130 0 0 1 1039.0 244.2" fill="none" stroke="#38A169" stroke-width="18" stroke-linecap="round"/>
  <text x="980" y="340" font-family="Arial,sans-serif" font-size="42" fill="#38A169" text-anchor="middle" font-weight="bold">65%</text>
  <text x="980" y="395" font-family="Arial,sans-serif" font-size="16" fill="#F5F5F5" text-anchor="middle" font-weight="600">Ciclo menstrual</text>
  <text x="850" y="380" font-family="Arial,sans-serif" font-size="11" fill="#888888" text-anchor="middle">0</text>
  <text x="1110" y="380" font-family="Arial,sans-serif" font-size="11" fill="#888888" text-anchor="middle">100</text>
  <text x="1176" y="618" font-family="Arial,sans-serif" font-size="11" fill="#444" text-anchor="end">montinhopersonal.com.br</text>
</svg>